<mxfile><diagram id="DZ-u2DyyFFWMX_Vm0AL-" name="Página-1"><mxGraphModel dx="959" dy="545" grid="1" gridSize="10" guides="1" tooltips="1" connect="1" arrows="1" fold="1" page="1" pageScale="1" pageWidth="827" pageHeight="1169" math="0" shadow="0"><root><mxCell id="0"/><mxCell id="1" parent="0"/><mxCell id="3" value="" style="endArrow=none;html=1;" parent="1" edge="1"><mxGeometry width="50" height="50" relative="1" as="geometry"><mxPoint x="330" y="180" as="sourcePoint"/><mxPoint x="330" y="180" as="targetPoint"/></mxGeometry></mxCell><mxCell id="5" value="&lt;div style=&quot;&quot;&gt;&lt;span style=&quot;background-color: initial;&quot;&gt;User&lt;/span&gt;&lt;/div&gt;&lt;div style=&quot;&quot;&gt;&lt;br&gt;&lt;/div&gt;&lt;div style=&quot;&quot;&gt;&lt;br&gt;&lt;/div&gt;&lt;div style=&quot;text-align: justify;&quot;&gt;&lt;span style=&quot;background-color: initial;&quot;&gt;+Name&lt;/span&gt;&lt;/div&gt;&lt;div style=&quot;text-align: justify;&quot;&gt;&lt;span style=&quot;background-color: initial;&quot;&gt;+Id&lt;/span&gt;&lt;/div&gt;&lt;div style=&quot;text-align: justify;&quot;&gt;&lt;span style=&quot;background-color: initial;&quot;&gt;+Password&lt;/span&gt;&lt;/div&gt;&lt;div style=&quot;text-align: justify;&quot;&gt;&lt;span style=&quot;background-color: initial;&quot;&gt;+Birthday&lt;/span&gt;&lt;/div&gt;&lt;div style=&quot;text-align: justify;&quot;&gt;&lt;span style=&quot;background-color: initial;&quot;&gt;+Roles&lt;/span&gt;&lt;/div&gt;&lt;div style=&quot;text-align: justify;&quot;&gt;&lt;br&gt;&lt;/div&gt;&lt;div style=&quot;text-align: justify;&quot;&gt;&lt;br&gt;&lt;/div&gt;&lt;div style=&quot;&quot;&gt;&lt;br&gt;&lt;/div&gt;" style="whiteSpace=wrap;html=1;aspect=fixed;" parent="1" vertex="1"><mxGeometry x="320" y="110" width="180" height="180" as="geometry"/></mxCell><mxCell id="6" value="" style="endArrow=none;html=1;entryX=1;entryY=0.25;entryDx=0;entryDy=0;exitX=0;exitY=0.25;exitDx=0;exitDy=0;" parent="1" source="5" target="5" edge="1"><mxGeometry width="50" height="50" relative="1" as="geometry"><mxPoint x="320" y="150" as="sourcePoint"/><mxPoint x="390" y="150" as="targetPoint"/></mxGeometry></mxCell><mxCell id="8" value="" style="endArrow=none;html=1;entryX=1;entryY=0.25;entryDx=0;entryDy=0;exitX=0;exitY=0.25;exitDx=0;exitDy=0;" parent="1" edge="1"><mxGeometry width="50" height="50" relative="1" as="geometry"><mxPoint x="320" y="260" as="sourcePoint"/><mxPoint x="500" y="260" as="targetPoint"/></mxGeometry></mxCell><mxCell id="14" value="&lt;div style=&quot;&quot;&gt;Movie&lt;/div&gt;&lt;div style=&quot;&quot;&gt;&lt;br&gt;&lt;/div&gt;&lt;div style=&quot;text-align: justify;&quot;&gt;&lt;span style=&quot;background-color: initial;&quot;&gt;&lt;br&gt;&lt;/span&gt;&lt;/div&gt;&lt;div style=&quot;text-align: justify;&quot;&gt;&lt;span style=&quot;background-color: initial;&quot;&gt;+Title&lt;/span&gt;&lt;/div&gt;&lt;div style=&quot;text-align: justify;&quot;&gt;&lt;span style=&quot;background-color: initial;&quot;&gt;+Category&lt;/span&gt;&lt;/div&gt;&lt;div style=&quot;text-align: justify;&quot;&gt;&lt;span style=&quot;background-color: initial;&quot;&gt;+Duration&lt;/span&gt;&lt;/div&gt;&lt;div style=&quot;text-align: justify;&quot;&gt;&lt;span style=&quot;background-color: initial;&quot;&gt;+Description&lt;/span&gt;&lt;/div&gt;&lt;div style=&quot;text-align: justify;&quot;&gt;&lt;br&gt;&lt;/div&gt;&lt;div style=&quot;text-align: justify;&quot;&gt;&lt;br&gt;&lt;/div&gt;&lt;div style=&quot;text-align: justify;&quot;&gt;&lt;br&gt;&lt;/div&gt;&lt;div style=&quot;&quot;&gt;&lt;br&gt;&lt;/div&gt;" style="whiteSpace=wrap;html=1;aspect=fixed;" parent="1" vertex="1"><mxGeometry x="100" y="390" width="180" height="180" as="geometry"/></mxCell><mxCell id="15" value="" style="endArrow=none;html=1;entryX=1;entryY=0.25;entryDx=0;entryDy=0;exitX=0;exitY=0.25;exitDx=0;exitDy=0;" parent="1" source="14" target="14" edge="1"><mxGeometry width="50" height="50" relative="1" as="geometry"><mxPoint x="100" y="430" as="sourcePoint"/><mxPoint x="170" y="430" as="targetPoint"/></mxGeometry></mxCell><mxCell id="16" value="" style="endArrow=none;html=1;entryX=1;entryY=0.25;entryDx=0;entryDy=0;exitX=0;exitY=0.25;exitDx=0;exitDy=0;" parent="1" edge="1"><mxGeometry width="50" height="50" relative="1" as="geometry"><mxPoint x="100" y="540" as="sourcePoint"/><mxPoint x="280" y="540" as="targetPoint"/></mxGeometry></mxCell><mxCell id="17" value="&lt;div style=&quot;&quot;&gt;Director&lt;/div&gt;&lt;div style=&quot;&quot;&gt;&lt;br&gt;&lt;/div&gt;&lt;div style=&quot;text-align: justify;&quot;&gt;&lt;span style=&quot;background-color: initial;&quot;&gt;&lt;br&gt;&lt;/span&gt;&lt;/div&gt;&lt;div style=&quot;text-align: justify;&quot;&gt;&lt;span style=&quot;background-color: initial;&quot;&gt;+Nombre&lt;/span&gt;&lt;/div&gt;&lt;div style=&quot;text-align: justify;&quot;&gt;&lt;span style=&quot;background-color: initial;&quot;&gt;+Descripcion&lt;/span&gt;&lt;/div&gt;&lt;div style=&quot;text-align: justify;&quot;&gt;&lt;span style=&quot;background-color: initial;&quot;&gt;+Categories&lt;/span&gt;&lt;/div&gt;&lt;div style=&quot;text-align: justify;&quot;&gt;&lt;br&gt;&lt;/div&gt;&lt;div style=&quot;text-align: justify;&quot;&gt;&lt;br&gt;&lt;/div&gt;&lt;div style=&quot;text-align: justify;&quot;&gt;&lt;br&gt;&lt;/div&gt;&lt;div style=&quot;text-align: justify;&quot;&gt;&lt;br&gt;&lt;/div&gt;&lt;div style=&quot;&quot;&gt;&lt;br&gt;&lt;/div&gt;" style="whiteSpace=wrap;html=1;aspect=fixed;" parent="1" vertex="1"><mxGeometry x="520" y="390" width="180" height="180" as="geometry"/></mxCell><mxCell id="18" value="" style="endArrow=none;html=1;entryX=1;entryY=0.25;entryDx=0;entryDy=0;exitX=0;exitY=0.25;exitDx=0;exitDy=0;" parent="1" source="17" target="17" edge="1"><mxGeometry width="50" height="50" relative="1" as="geometry"><mxPoint x="520" y="430" as="sourcePoint"/><mxPoint x="590" y="430" as="targetPoint"/></mxGeometry></mxCell><mxCell id="19" value="" style="endArrow=none;html=1;entryX=1;entryY=0.25;entryDx=0;entryDy=0;exitX=0;exitY=0.25;exitDx=0;exitDy=0;" parent="1" edge="1"><mxGeometry width="50" height="50" relative="1" as="geometry"><mxPoint x="520" y="540" as="sourcePoint"/><mxPoint x="700" y="540" as="targetPoint"/></mxGeometry></mxCell><mxCell id="24" value="" style="endArrow=none;html=1;entryX=1.056;entryY=0.256;entryDx=0;entryDy=0;entryPerimeter=0;" parent="1" edge="1" target="61"><mxGeometry width="50" height="50" relative="1" as="geometry"><mxPoint x="560" y="390" as="sourcePoint"/><mxPoint x="470" y="360" as="targetPoint"/><Array as="points"><mxPoint x="560" y="355"/></Array></mxGeometry></mxCell><mxCell id="28" value="" style="endArrow=classic;html=1;fontSize=18;" parent="1" edge="1"><mxGeometry width="50" height="50" relative="1" as="geometry"><mxPoint x="370" y="490" as="sourcePoint"/><mxPoint x="370" y="490" as="targetPoint"/></mxGeometry></mxCell><mxCell id="29" value="1" style="text;strokeColor=none;fillColor=none;html=1;fontSize=16;fontStyle=0;verticalAlign=middle;align=center;spacing=2;" parent="1" vertex="1"><mxGeometry x="470" y="450" width="60" height="20" as="geometry"/></mxCell><mxCell id="30" value="&lt;font style=&quot;font-size: 18px;&quot;&gt;N&lt;/font&gt;" style="text;strokeColor=none;fillColor=none;html=1;fontSize=24;fontStyle=0;verticalAlign=middle;align=center;" parent="1" vertex="1"><mxGeometry x="280" y="455" width="40" height="10" as="geometry"/></mxCell><mxCell id="41" value="" style="endArrow=none;html=1;" edge="1" parent="1"><mxGeometry width="50" height="50" relative="1" as="geometry"><mxPoint x="510" y="480" as="sourcePoint"/><mxPoint x="290" y="480" as="targetPoint"/></mxGeometry></mxCell><mxCell id="60" value="" style="shape=table;startSize=0;container=1;collapsible=0;childLayout=tableLayout;" vertex="1" parent="1"><mxGeometry x="370" y="340" width="80" height="60" as="geometry"/></mxCell><mxCell id="61" value="" style="shape=tableRow;horizontal=0;startSize=0;swimlaneHead=0;swimlaneBody=0;top=0;left=0;bottom=0;right=0;collapsible=0;dropTarget=0;fillColor=none;points=[[0,0.5],[1,0.5]];portConstraint=eastwest;" vertex="1" parent="60"><mxGeometry width="80" height="60" as="geometry"/></mxCell><mxCell id="62" value="ROL" style="shape=partialRectangle;html=1;whiteSpace=wrap;connectable=0;overflow=hidden;fillColor=none;top=0;left=0;bottom=0;right=0;pointerEvents=1;" vertex="1" parent="61"><mxGeometry width="80" height="60" as="geometry"><mxRectangle width="80" height="60" as="alternateBounds"/></mxGeometry></mxCell><mxCell id="63" value="" style="endArrow=none;html=1;entryX=0.811;entryY=-0.021;entryDx=0;entryDy=0;entryPerimeter=0;exitX=-0.032;exitY=0.23;exitDx=0;exitDy=0;exitPerimeter=0;" edge="1" parent="1" source="61" target="14"><mxGeometry width="50" height="50" relative="1" as="geometry"><mxPoint x="360" y="360" as="sourcePoint"/><mxPoint x="240" y="380" as="targetPoint"/><Array as="points"><mxPoint x="246" y="354"/></Array></mxGeometry></mxCell><mxCell id="65" value="" style="endArrow=none;html=1;exitX=0.496;exitY=-0.008;exitDx=0;exitDy=0;exitPerimeter=0;entryX=0.5;entryY=1;entryDx=0;entryDy=0;" edge="1" parent="1" source="61" target="5"><mxGeometry width="50" height="50" relative="1" as="geometry"><mxPoint x="480" y="310" as="sourcePoint"/><mxPoint x="410" y="300" as="targetPoint"/></mxGeometry></mxCell></root></mxGraphModel></diagram></mxfile>